<svg width="32" height="32" viewBox="0 0 32 32" fill="none" xmlns="http://www.w3.org/2000/svg">
<path d="M27.9295 11.0733C27.916 10.0635 27.727 9.06366 27.3708 8.11862C27.0619 7.32149 26.5902 6.59755 25.9857 5.99306C25.3812 5.38856 24.6573 4.91681 23.8601 4.60794C22.9273 4.25775 21.9417 4.0684 20.9455 4.04794C19.6628 3.99061 19.2561 3.97461 16.0001 3.97461C12.7441 3.97461 12.3268 3.97461 11.0534 4.04794C10.0577 4.06855 9.07257 4.2579 8.1401 4.60794C7.34285 4.9166 6.61879 5.38827 6.01428 5.99279C5.40976 6.59731 4.93808 7.32136 4.62943 8.11862C4.27854 9.0508 4.08959 10.0361 4.07076 11.032C4.01343 12.316 3.99609 12.7226 3.99609 15.9786C3.99609 19.2346 3.99609 19.6506 4.07076 20.9253C4.09076 21.9227 4.27876 22.9067 4.62943 23.8413C4.9386 24.6383 5.41063 25.3621 6.01535 25.9664C6.62007 26.5706 7.34419 27.0421 8.14144 27.3507C9.07135 27.7149 10.0566 27.9178 11.0548 27.9507C12.3388 28.008 12.7454 28.0253 16.0015 28.0253C19.2575 28.0253 19.6748 28.0253 20.9481 27.9507C21.9443 27.931 22.93 27.7421 23.8628 27.392C24.6597 27.0828 25.3835 26.6109 25.9879 26.0065C26.5924 25.402 27.0643 24.6782 27.3735 23.8813C27.7241 22.948 27.9121 21.964 27.9321 20.9653C27.9895 19.6826 28.0068 19.276 28.0068 16.0186C28.0041 12.7626 28.0041 12.3493 27.9295 11.0733ZM15.9921 22.136C12.5868 22.136 9.82811 19.3773 9.82811 15.972C9.82811 12.5666 12.5868 9.80796 15.9921 9.80796C17.6269 9.80796 19.1948 10.4574 20.3507 11.6134C21.5067 12.7693 22.1561 14.3372 22.1561 15.972C22.1561 17.6068 21.5067 19.1746 20.3507 20.3306C19.1948 21.4866 17.6269 22.136 15.9921 22.136ZM22.4015 11.0173C22.2127 11.0175 22.0257 10.9804 21.8512 10.9082C21.6768 10.8361 21.5182 10.7302 21.3847 10.5967C21.2512 10.4632 21.1454 10.3047 21.0732 10.1302C21.001 9.95574 20.964 9.76876 20.9641 9.57996C20.9641 9.39129 21.0013 9.20447 21.0735 9.03017C21.1457 8.85586 21.2515 8.69748 21.3849 8.56408C21.5183 8.43067 21.6767 8.32485 21.851 8.25265C22.0253 8.18045 22.2121 8.14329 22.4008 8.14329C22.5895 8.14329 22.7763 8.18045 22.9506 8.25265C23.1249 8.32485 23.2833 8.43067 23.4167 8.56408C23.5501 8.69748 23.6559 8.85586 23.7281 9.03017C23.8003 9.20447 23.8375 9.39129 23.8375 9.57996C23.8375 10.3746 23.1948 11.0173 22.4015 11.0173Z" fill="#CCE3FF"/>
<path d="M15.9923 19.9763C18.2036 19.9763 19.9963 18.1836 19.9963 15.9723C19.9963 13.7609 18.2036 11.9683 15.9923 11.9683C13.7809 11.9683 11.9883 13.7609 11.9883 15.9723C11.9883 18.1836 13.7809 19.9763 15.9923 19.9763Z" fill="#CCE3FF"/>
</svg>
