<svg width="32" height="32" viewBox="0 0 32 32" fill="none" xmlns="http://www.w3.org/2000/svg">
<path d="M5.33268 26.6668C4.59935 26.6668 3.97179 26.4059 3.45002 25.8842C2.92824 25.3624 2.6669 24.7344 2.66602 24.0002V8.00016C2.66602 7.26683 2.92735 6.63927 3.45002 6.1175C3.97268 5.59572 4.60024 5.33438 5.33268 5.3335H26.666C27.3993 5.3335 28.0273 5.59483 28.55 6.1175C29.0727 6.64016 29.3336 7.26772 29.3327 8.00016V24.0002C29.3327 24.7335 29.0718 25.3615 28.55 25.8842C28.0282 26.4068 27.4002 26.6677 26.666 26.6668H5.33268ZM15.9993 17.3335L26.666 10.6668V8.00016L15.9993 14.6668L5.33268 8.00016V10.6668L15.9993 17.3335Z" fill="#CCE3FF"/>
</svg>
