<svg width="37" height="36" viewBox="0 0 37 36" fill="none" xmlns="http://www.w3.org/2000/svg">
<circle cx="18.7188" cy="18" r="18" fill="#023460"/>
<path d="M27.5893 28.6716L20.3893 21.4716C19.7465 21.9859 19.0072 22.393 18.1715 22.693C17.3358 22.993 16.4465 23.143 15.5036 23.143C13.1679 23.143 11.1913 22.3343 9.57391 20.7169C7.95563 19.0986 7.14648 17.1216 7.14648 14.7859C7.14648 12.4501 7.95563 10.4731 9.57391 8.85485C11.1913 7.23743 13.1679 6.42871 15.5036 6.42871C17.8393 6.42871 19.8163 7.23743 21.4346 8.85485C23.0521 10.4731 23.8608 12.4501 23.8608 14.7859C23.8608 15.7287 23.7108 16.618 23.4108 17.4537C23.1108 18.2894 22.7036 19.0287 22.1893 19.6716L29.4215 26.9037C29.6572 27.1394 29.7751 27.4287 29.7751 27.7716C29.7751 28.1144 29.6465 28.4144 29.3893 28.6716C29.1536 28.9073 28.8536 29.0251 28.4893 29.0251C28.1251 29.0251 27.8251 28.9073 27.5893 28.6716ZM15.5036 20.5716C17.1108 20.5716 18.4771 20.0093 19.6025 18.8847C20.7271 17.7593 21.2893 16.393 21.2893 14.7859C21.2893 13.1787 20.7271 11.8124 19.6025 10.687C18.4771 9.56242 17.1108 9.00014 15.5036 9.00014C13.8965 9.00014 12.5302 9.56242 11.4048 10.687C10.2802 11.8124 9.71791 13.1787 9.71791 14.7859C9.71791 16.393 10.2802 17.7593 11.4048 18.8847C12.5302 20.0093 13.8965 20.5716 15.5036 20.5716Z" fill="white"/>
</svg>
